<?xml version="1.0" encoding="UTF-8" standalone="no"?>
<!-- Created with Inkscape (http://www.inkscape.org/) -->
<svg
   xmlns:svg="http://www.w3.org/2000/svg"
   xmlns="http://www.w3.org/2000/svg"
   version="1.0"
   width="209.42999"
   height="47.349998"
   id="svg2"
   xml:space="preserve"><defs
     id="defs5"><clipPath
       id="clipPath19"><path
         d="M 0,0 L 595.276,0 L 595.276,841.89 L 0,841.89 L 0,0 z"
         id="path21" /></clipPath><clipPath
       id="clipPath43"><path
         d="M 237.165,0 L 595.275,0 L 595.275,193.701 L 237.165,193.701 L 237.165,0 z"
         id="path45" /></clipPath></defs><g
     transform="matrix(1.25,0,0,-1.25,-485.31187,98.7975)"
     id="g11"><path
       d="M 530.07021,65.906121 L 542.16421,65.906121 L 542.16421,53.812121 L 530.07021,53.812121 L 530.07021,65.906121 z"
       id="path31"
       style="fill:#000000;fill-opacity:1;fill-rule:nonzero;stroke:none" /><path
       d="M 530.06921,53.813121 L 542.16321,53.813121 L 542.16321,41.719121 L 530.06921,41.719121 L 530.06921,53.813121 z"
       id="path33"
       style="fill:#009036;fill-opacity:1;fill-rule:nonzero;stroke:none" /><path
       d="M 542.16221,65.906121 L 554.25621,65.906121 L 554.25621,53.812121 L 542.16221,53.812121 L 542.16221,65.906121 z"
       id="path35"
       style="fill:#e2001a;fill-opacity:1;fill-rule:nonzero;stroke:none" /><path
       d="M 542.16221,77.999121 L 554.25621,77.999121 L 554.25621,65.905121 L 542.16221,65.905121 L 542.16221,77.999121 z"
       id="path37"
       style="fill:#0081c6;fill-opacity:1;fill-rule:nonzero;stroke:none" /><g
       transform="translate(1.6622064,-1.038879)"
       id="g39"><g
         clip-path="url(#clipPath43)"
         id="g41"><g
           transform="translate(396.2835,59.4967)"
           id="g47"><path
             d="M 0,0 C 0,-0.724 -0.093,-2.779 -2.686,-2.779 C -3.76,-2.779 -4.718,-2.476 -4.718,-1.238 C -4.718,-0.023 -3.783,0.327 -2.756,0.537 C -1.728,0.724 -0.561,0.747 0,1.238 L 0,0 z M -4.344,3.69 C -4.227,4.998 -3.41,5.512 -2.149,5.512 C -0.981,5.512 0,5.302 0,3.877 C 0,2.522 -1.892,2.569 -3.924,2.289 C -5.979,1.985 -8.034,1.355 -8.034,-1.378 C -8.034,-3.854 -6.212,-4.998 -3.924,-4.998 C -2.452,-4.998 -0.911,-4.601 0.14,-3.503 C 0.163,-3.9 0.257,-4.297 0.374,-4.671 L 3.737,-4.671 C 3.433,-4.181 3.316,-3.083 3.316,-1.985 L 3.316,4.297 C 3.316,7.193 0.42,7.73 -1.985,7.73 C -4.694,7.73 -7.474,6.796 -7.66,3.69 L -4.344,3.69 z"
             id="path49"
             style="fill:#000000;fill-opacity:1;fill-rule:evenodd;stroke:none" /></g><g
           transform="translate(400.6736,54.8551)"
           id="g51"><path
             d="M 0,0 L 3.713,0 L 6.236,3.807 L 8.758,0 L 12.542,0 L 8.081,6.423 L 12.051,12.074 L 8.384,12.074 L 6.282,8.922 L 4.157,12.074 L 0.374,12.074 L 4.344,6.353 L 0,0 z"
             id="path53"
             style="fill:#000000;fill-opacity:1;fill-rule:nonzero;stroke:none" /></g><g
           transform="translate(424.9828,60.0572)"
           id="g55"><path
             d="M 0,0 C 0.234,3.713 -1.752,7.17 -5.862,7.17 C -9.529,7.17 -12.028,4.414 -12.028,0.794 C -12.028,-2.943 -9.669,-5.558 -5.862,-5.558 C -3.13,-5.558 -1.144,-4.344 -0.21,-1.495 L -3.13,-1.495 C -3.34,-2.242 -4.414,-3.06 -5.745,-3.06 C -7.59,-3.06 -8.618,-2.102 -8.711,0 L 0,0 z M -8.711,2.102 C -8.665,3.036 -8.057,4.671 -5.956,4.671 C -4.344,4.671 -3.62,3.784 -3.316,2.102 L -8.711,2.102 z"
             id="path57"
             style="fill:#000000;fill-opacity:1;fill-rule:evenodd;stroke:none" /></g><path
           d="M 426.687,54.826 L 430.003,54.826 L 430.003,71.501 L 426.687,71.501 L 426.687,54.826 z"
           id="path59"
           style="fill:#000000;fill-opacity:1;fill-rule:nonzero;stroke:none" /><g
           transform="translate(435.2521,58.7493)"
           id="g61"><path
             d="M 0,0 C 0.14,-3.2 2.873,-4.251 5.675,-4.251 C 8.431,-4.251 11.187,-3.223 11.187,-0.047 C 11.187,2.195 9.295,2.896 7.357,3.34 C 5.465,3.784 3.597,3.947 3.597,5.138 C 3.597,6.119 4.694,6.259 5.442,6.259 C 6.633,6.259 7.614,5.909 7.707,4.624 L 10.86,4.624 C 10.603,7.59 8.174,8.478 5.535,8.478 C 2.943,8.478 0.28,7.684 0.28,4.601 C 0.28,2.476 2.195,1.798 4.11,1.378 C 6.493,0.864 7.871,0.514 7.871,-0.49 C 7.871,-1.658 6.656,-2.032 5.699,-2.032 C 4.391,-2.032 3.176,-1.448 3.153,0 L 0,0 z"
             id="path63"
             style="fill:#000000;fill-opacity:1;fill-rule:nonzero;stroke:none" /></g><g
           transform="translate(447.907,50.5751)"
           id="g65"><path
             d="M 0,0 L 3.316,0 L 3.316,5.745 L 3.363,5.745 C 4.157,4.554 5.535,3.924 6.983,3.924 C 10.51,3.924 12.285,6.936 12.285,10.159 C 12.285,13.593 10.58,16.652 6.796,16.652 C 5.302,16.652 3.994,16.068 3.2,14.784 L 3.153,14.784 L 3.153,16.325 L 0,16.325 L 0,0 z M 6.096,6.423 C 3.947,6.423 3.2,8.291 3.2,10.253 C 3.2,12.215 3.9,14.153 6.072,14.153 C 8.198,14.153 8.968,12.168 8.968,10.253 C 8.968,8.291 8.268,6.423 6.096,6.423"
             id="path67"
             style="fill:#000000;fill-opacity:1;fill-rule:evenodd;stroke:none" /></g><g
           transform="translate(461.5649,54.8257)"
           id="g69"><path
             d="M 0,0 L 3.316,0 L 3.316,5.442 C 3.316,7.567 4.157,9.001 6.586,9.001 C 6.983,9.001 7.474,8.955 7.777,8.885 L 7.777,12.062 C 7.547,12.079 7.287,12.084 7.053,12.084 C 5.442,12.084 3.807,11.35 3.2,9.832 L 3.153,9.832 L 3.153,12.075 L 0,12.075 L 0,0 z"
             id="path71"
             style="fill:#000000;fill-opacity:1;fill-rule:nonzero;stroke:none" /></g><path
           d="M 470.901,54.826 L 474.217,54.826 L 474.217,66.901 L 470.901,66.901 L 470.901,54.826 z M 474.218,71.501 L 470.902,71.501 L 470.902,68.769 L 474.218,68.769 L 474.218,71.501 z"
           id="path73"
           style="fill:#000000;fill-opacity:1;fill-rule:evenodd;stroke:none" /><g
           transform="translate(476.1112,54.8257)"
           id="g75"><path
             d="M 0,0 L 3.316,0 L 3.316,6.329 C 3.316,8.781 4.087,9.786 5.885,9.786 C 7.427,9.786 8.011,8.805 8.011,6.82 L 8.011,0 L 11.327,0 L 11.327,7.427 C 11.327,10.416 10.44,12.401 6.913,12.401 C 5.512,12.401 4.064,11.748 3.223,10.393 L 3.153,10.393 L 3.153,12.075 L 0,12.075 L 0,0 z"
             id="path77"
             style="fill:#000000;fill-opacity:1;fill-rule:nonzero;stroke:none" /></g><g
           transform="translate(501.0975,66.9002)"
           id="g79"><path
             d="M 0,0 L -3.153,0 L -3.153,-1.612 L -3.2,-1.612 C -3.994,-0.21 -5.208,0.327 -6.796,0.327 C -10.183,0.327 -11.981,-2.522 -11.981,-5.652 C -11.981,-8.968 -10.44,-11.724 -6.82,-11.724 C -5.372,-11.724 -3.924,-11.117 -3.2,-9.856 L -3.153,-9.856 L -3.153,-11.444 C -3.153,-13.172 -3.97,-14.433 -5.815,-14.433 C -6.983,-14.433 -7.987,-14.013 -8.291,-12.775 L -11.584,-12.775 C -11.421,-15.531 -8.641,-16.652 -6.259,-16.652 C -0.701,-16.652 0,-13.289 0,-11.304 L 0,0 z M -5.979,-9.225 C -8.011,-9.225 -8.665,-7.333 -8.665,-5.605 C -8.665,-3.807 -7.847,-2.172 -5.979,-2.172 C -3.83,-2.172 -3.153,-3.924 -3.153,-5.885 C -3.153,-7.614 -4.087,-9.225 -5.979,-9.225"
             id="path81"
             style="fill:#000000;fill-opacity:1;fill-rule:evenodd;stroke:none" /></g><g
           transform="translate(514.7089,60.0572)"
           id="g83"><path
             d="M 0,0 C 0.233,3.713 -1.752,7.17 -5.862,7.17 C -9.529,7.17 -12.028,4.414 -12.028,0.794 C -12.028,-2.943 -9.669,-5.558 -5.862,-5.558 C -3.13,-5.558 -1.144,-4.344 -0.21,-1.495 L -3.13,-1.495 C -3.34,-2.242 -4.414,-3.06 -5.745,-3.06 C -7.59,-3.06 -8.618,-2.102 -8.711,0 L 0,0 z M -8.711,2.102 C -8.665,3.036 -8.057,4.671 -5.956,4.671 C -4.344,4.671 -3.62,3.784 -3.316,2.102 L -8.711,2.102 z"
             id="path85"
             style="fill:#000000;fill-opacity:1;fill-rule:evenodd;stroke:none" /></g><g
           transform="translate(516.4633,54.8697)"
           id="g87"><path
             d="M 0,0 L 3.316,0 L 3.316,5.442 C 3.316,7.567 4.157,9.001 6.586,9.001 C 6.983,9.001 7.474,8.955 7.777,8.885 L 7.777,12.062 C 7.547,12.079 7.287,12.084 7.053,12.084 C 5.442,12.084 3.807,11.351 3.2,9.832 L 3.153,9.832 L 3.153,12.075 L 0,12.075 L 0,0 z"
             id="path89"
             style="fill:#000000;fill-opacity:1;fill-rule:nonzero;stroke:none" /></g></g></g></g></svg>